# xmcd
#
# Track frame offsets: 
#        150
#        10055
#        21578
#        33124
#        43670
#        53241
#        72107
#        81853
#        99097
#        108759
#        121454
#        134835
#        146323
#
# Disc length: 2224 seconds
#
# Revision: 0
# Processed by: cddbd v1.5.2PL0 Copyright (c) Steve Scherf et al.
# Submitted via: ExactAudioCopyFreeDBPlugin 1.0
#
DISCID=a708ae0d
DTITLE=Lonnie Mack - The Wham of That Memphis Man
DYEAR=1970
DGENRE=Blues
TTITLE0=Wham
TTITLE1=I'll Keep You Happy
TTITLE2=Suzi Q
TTITLE3=Farther on Down the Road
TTITLE4=Bounce
TTITLE5=Where there's a Will There's a Way
TTITLE6=Chicken Pickin'
TTITLE7=Baby What's Wrong
TTITLE8=Down in the Dumps
TTITLE9=Down and Out
TTITLE10=Satisfied
TTITLE11=Memphis
TTITLE12=Why
EXTD=
EXTT0=
EXTT1=
EXTT2=
EXTT3=
EXTT4=
EXTT5=
EXTT6=
EXTT7=
EXTT8=
EXTT9=
EXTT10=
EXTT11=
EXTT12=
PLAYORDER=
